<svg xmlns="http://www.w3.org/2000/svg" viewBox="0 0 400 400" width="400" height="400" role="img" aria-label="Ilustrasi properti">
  <defs>
    <linearGradient id="g" x1="0" y1="0" x2="0" y2="1">
      <stop offset="0" stop-color="#6366f1"/>
      <stop offset="1" stop-color="#141233"/>
    </linearGradient>
  </defs>
  <rect width="400" height="400" fill="url(#g)"/>
  <circle cx="320" cy="70" r="120" fill="#ffffff" opacity="0.06"/>
  <circle cx="60" cy="360" r="90" fill="#ffffff" opacity="0.05"/>
  <rect x="130" y="120" width="140" height="250" rx="6" fill="#ffffff" opacity="0.92"/><rect x="150" y="140" width="26" height="26" fill="#0c1830" opacity="0.4"/><rect x="195" y="140" width="26" height="26" fill="#0c1830" opacity="0.4"/><rect x="240" y="140" width="26" height="26" fill="#0c1830" opacity="0.4"/><rect x="150" y="184" width="26" height="26" fill="#0c1830" opacity="0.4"/><rect x="195" y="184" width="26" height="26" fill="#0c1830" opacity="0.4"/><rect x="240" y="184" width="26" height="26" fill="#0c1830" opacity="0.4"/><rect x="150" y="228" width="26" height="26" fill="#0c1830" opacity="0.4"/><rect x="195" y="228" width="26" height="26" fill="#0c1830" opacity="0.4"/><rect x="240" y="228" width="26" height="26" fill="#0c1830" opacity="0.4"/><rect x="150" y="272" width="26" height="26" fill="#0c1830" opacity="0.4"/><rect x="195" y="272" width="26" height="26" fill="#0c1830" opacity="0.4"/><rect x="240" y="272" width="26" height="26" fill="#0c1830" opacity="0.4"/><rect x="150" y="316" width="26" height="26" fill="#0c1830" opacity="0.4"/><rect x="195" y="316" width="26" height="26" fill="#0c1830" opacity="0.4"/><rect x="240" y="316" width="26" height="26" fill="#0c1830" opacity="0.4"/>
</svg>