<svg xmlns="http://www.w3.org/2000/svg" viewBox="0 0 1280 640" width="1280" height="640" role="img" aria-label="Banner sekolah 3">
  <defs>
    <linearGradient id="hg3" x1="0" y1="0" x2="1" y2="1">
      <stop offset="0" stop-color="#0f4fb0"/>
      <stop offset="0.55" stop-color="#1f8fd0"/>
      <stop offset="1" stop-color="#0fb5d6"/>
    </linearGradient>
    <radialGradient id="hr3" cx="0.8" cy="0.2" r="0.9">
      <stop offset="0" stop-color="#ffffff" stop-opacity="0.22"/>
      <stop offset="1" stop-color="#ffffff" stop-opacity="0"/>
    </radialGradient>
  </defs>
  <rect width="1280" height="640" fill="url(#hg3)"/>
  <rect width="1280" height="640" fill="url(#hr3)"/>
  <g fill="#ffffff" opacity="0.07">
    <circle cx="1050" cy="120" r="190"/>
    <circle cx="170" cy="560" r="150"/>
    <circle cx="640" cy="-40" r="120"/>
  </g>
  <g opacity="0.16" stroke="#ffffff" stroke-width="2" fill="none">
    <path d="M-20 470 Q 320 380 640 470 T 1300 470"/>
    <path d="M-20 520 Q 320 430 640 520 T 1300 520"/>
  </g>
  <g transform="translate(835 250)" opacity="0.9" fill="#ffffff">
    <rect x="-150" y="120" width="300" height="170" rx="6" opacity="0.92"/>
    <path d="M-175 120 L0 35 L175 120 Z" opacity="0.95"/>
    <rect x="-15" y="20" width="6" height="40"/>
    <path d="M-12 22 L40 32 L-12 46 Z" opacity="0.9"/>
    <g fill="#ffffff" opacity="0.0"><rect x="0" y="0" width="1" height="1"/></g>
    <g fill="none" stroke="{stroke}" stroke-width="0"></g>
    <rect x="-40" y="200" width="80" height="90" rx="4" fill="#ffffff" opacity="0.0"/>
    <g fill="#1a3a8f" opacity="0.18">
      <rect x="-120" y="150" width="46" height="46" rx="4"/>
      <rect x="-23" y="150" width="46" height="46" rx="4"/>
      <rect x="74" y="150" width="46" height="46" rx="4"/>
      <rect x="-30" y="212" width="60" height="78" rx="4"/>
    </g>
  </g>
</svg>
