<svg xmlns="http://www.w3.org/2000/svg" viewBox="0 0 1280 640" width="1280" height="640" role="img" aria-label="Banner sekolah 1">
  <defs>
    <linearGradient id="hg1" x1="0" y1="0" x2="1" y2="1">
      <stop offset="0" stop-color="#1d5fd8"/>
      <stop offset="0.55" stop-color="#2f6fe6"/>
      <stop offset="1" stop-color="#0fb5d6"/>
    </linearGradient>
    <radialGradient id="hr1" cx="0.8" cy="0.2" r="0.9">
      <stop offset="0" stop-color="#ffffff" stop-opacity="0.22"/>
      <stop offset="1" stop-color="#ffffff" stop-opacity="0"/>
    </radialGradient>
  </defs>
  <rect width="1280" height="640" fill="url(#hg1)"/>
  <rect width="1280" height="640" fill="url(#hr1)"/>
  <g fill="#ffffff" opacity="0.07">
    <circle cx="1050" cy="120" r="190"/>
    <circle cx="170" cy="560" r="150"/>
    <circle cx="640" cy="-40" r="120"/>
  </g>
  <g opacity="0.16" stroke="#ffffff" stroke-width="2" fill="none">
    <path d="M-20 470 Q 320 380 640 470 T 1300 470"/>
    <path d="M-20 520 Q 320 430 640 520 T 1300 520"/>
  </g>
  <g transform="translate(880 330)" opacity="0.9" fill="#ffffff">
    <g opacity="0.92">
      <path d="M0 0 L150 55 L0 110 L-150 55 Z"/>
      <path d="M-95 78 L-95 140 Q0 188 95 140 L95 78 L0 118 Z" opacity="0.85"/>
      <line x1="150" y1="55" x2="150" y2="150" stroke="#ffffff" stroke-width="5"/>
      <circle cx="150" cy="158" r="12"/>
    </g>
  </g>
</svg>
