<svg xmlns="http://www.w3.org/2000/svg" viewBox="0 0 1280 640" width="1280" height="640" role="img" aria-label="Banner sekolah 2">
  <defs>
    <linearGradient id="hg2" x1="0" y1="0" x2="1" y2="1">
      <stop offset="0" stop-color="#1746b0"/>
      <stop offset="0.55" stop-color="#1d5fd8"/>
      <stop offset="1" stop-color="#3aa0e6"/>
    </linearGradient>
    <radialGradient id="hr2" cx="0.8" cy="0.2" r="0.9">
      <stop offset="0" stop-color="#ffffff" stop-opacity="0.22"/>
      <stop offset="1" stop-color="#ffffff" stop-opacity="0"/>
    </radialGradient>
  </defs>
  <rect width="1280" height="640" fill="url(#hg2)"/>
  <rect width="1280" height="640" fill="url(#hr2)"/>
  <g fill="#ffffff" opacity="0.07">
    <circle cx="1050" cy="120" r="190"/>
    <circle cx="170" cy="560" r="150"/>
    <circle cx="640" cy="-40" r="120"/>
  </g>
  <g opacity="0.16" stroke="#ffffff" stroke-width="2" fill="none">
    <path d="M-20 470 Q 320 380 640 470 T 1300 470"/>
    <path d="M-20 520 Q 320 430 640 520 T 1300 520"/>
  </g>
  <g transform="translate(835 300)" opacity="0.92" fill="none" stroke="#ffffff" stroke-width="7" stroke-linejoin="round" stroke-linecap="round">
    <path d="M0 40 C 60 0 150 0 200 30 L200 190 C 150 160 60 160 0 200 Z"/>
    <path d="M0 40 C -60 0 -150 0 -200 30 L-200 190 C -150 160 -60 160 0 200 Z"/>
    <line x1="0" y1="40" x2="0" y2="200"/>
    <g stroke-width="4" opacity="0.7">
      <line x1="-170" y1="60" x2="-40" y2="80"/>
      <line x1="-170" y1="95" x2="-40" y2="115"/>
      <line x1="40" y1="80" x2="170" y2="60"/>
      <line x1="40" y1="115" x2="170" y2="95"/>
    </g>
  </g>
</svg>
